<?xml version="1.0" encoding="UTF-8"?><svg xmlns="http://www.w3.org/2000/svg" xmlns:xlink="http://www.w3.org/1999/xlink" fill-opacity="1" color-rendering="auto" color-interpolation="auto" text-rendering="auto" stroke="black" stroke-linecap="square" width="732" stroke-miterlimit="10" shape-rendering="auto" stroke-opacity="1" fill="black" stroke-dasharray="none" font-weight="normal" stroke-width="1" height="1460" font-family="'Dialog'" font-style="normal" stroke-linejoin="miter" font-size="12px" stroke-dashoffset="0" image-rendering="auto">
  <!--Generated by ySVG 2.6-->
  <defs id="genericDefs"/>
  <g>
    <defs id="defs1">
      <linearGradient x1="-242.6406" gradientUnits="userSpaceOnUse" x2="-35.6406" y1="-236.3125" y2="-196.3125" id="linearGradient1" spreadMethod="reflect">
        <stop stop-opacity="1" stop-color="rgb(232,238,247)" offset="0%"/>
        <stop stop-opacity="1" stop-color="rgb(183,201,227)" offset="100%"/>
      </linearGradient>
      <linearGradient x1="-224.1406" gradientUnits="userSpaceOnUse" x2="-54.1406" y1="81.6875" y2="154.6875" id="linearGradient2" spreadMethod="reflect">
        <stop stop-opacity="1" stop-color="rgb(232,238,247)" offset="0%"/>
        <stop stop-opacity="1" stop-color="rgb(183,201,227)" offset="100%"/>
      </linearGradient>
      <linearGradient x1="-489.6406" gradientUnits="userSpaceOnUse" x2="-282.6406" y1="71.1875" y2="165.1875" id="linearGradient3" spreadMethod="reflect">
        <stop stop-opacity="1" stop-color="rgb(232,238,247)" offset="0%"/>
        <stop stop-opacity="1" stop-color="rgb(183,201,227)" offset="100%"/>
      </linearGradient>
      <linearGradient x1="-489.6406" gradientUnits="userSpaceOnUse" x2="-282.6406" y1="195.1875" y2="289.1875" id="linearGradient4" spreadMethod="reflect">
        <stop stop-opacity="1" stop-color="rgb(232,238,247)" offset="0%"/>
        <stop stop-opacity="1" stop-color="rgb(183,201,227)" offset="100%"/>
      </linearGradient>
      <linearGradient x1="-242.6406" gradientUnits="userSpaceOnUse" x2="-35.6406" y1="-166.3125" y2="-72.3125" id="linearGradient5" spreadMethod="reflect">
        <stop stop-opacity="1" stop-color="rgb(232,238,247)" offset="0%"/>
        <stop stop-opacity="1" stop-color="rgb(183,201,227)" offset="100%"/>
      </linearGradient>
      <linearGradient x1="4.3594" gradientUnits="userSpaceOnUse" x2="211.3594" y1="71.1875" y2="165.1875" id="linearGradient6" spreadMethod="reflect">
        <stop stop-opacity="1" stop-color="rgb(232,238,247)" offset="0%"/>
        <stop stop-opacity="1" stop-color="rgb(183,201,227)" offset="100%"/>
      </linearGradient>
      <linearGradient x1="22.8594" gradientUnits="userSpaceOnUse" x2="192.8594" y1="205.6875" y2="278.6875" id="linearGradient7" spreadMethod="reflect">
        <stop stop-opacity="1" stop-color="rgb(232,238,247)" offset="0%"/>
        <stop stop-opacity="1" stop-color="rgb(183,201,227)" offset="100%"/>
      </linearGradient>
      <linearGradient x1="-242.6406" gradientUnits="userSpaceOnUse" x2="-35.6406" y1="195.1875" y2="289.1875" id="linearGradient8" spreadMethod="reflect">
        <stop stop-opacity="1" stop-color="rgb(232,238,247)" offset="0%"/>
        <stop stop-opacity="1" stop-color="rgb(183,201,227)" offset="100%"/>
      </linearGradient>
      <linearGradient x1="4.3594" gradientUnits="userSpaceOnUse" x2="211.3594" y1="319.1875" y2="413.1875" id="linearGradient9" spreadMethod="reflect">
        <stop stop-opacity="1" stop-color="rgb(232,238,247)" offset="0%"/>
        <stop stop-opacity="1" stop-color="rgb(183,201,227)" offset="100%"/>
      </linearGradient>
      <linearGradient x1="-242.6406" gradientUnits="userSpaceOnUse" x2="-35.6406" y1="478.0781" y2="572.0781" id="linearGradient10" spreadMethod="reflect">
        <stop stop-opacity="1" stop-color="rgb(232,238,247)" offset="0%"/>
        <stop stop-opacity="1" stop-color="rgb(183,201,227)" offset="100%"/>
      </linearGradient>
      <linearGradient x1="-242.6406" gradientUnits="userSpaceOnUse" x2="-35.6406" y1="-42.3125" y2="51.6875" id="linearGradient11" spreadMethod="reflect">
        <stop stop-opacity="1" stop-color="rgb(232,238,247)" offset="0%"/>
        <stop stop-opacity="1" stop-color="rgb(183,201,227)" offset="100%"/>
      </linearGradient>
      <linearGradient x1="-224.1406" gradientUnits="userSpaceOnUse" x2="-54.1406" y1="612.5781" y2="685.5781" id="linearGradient12" spreadMethod="reflect">
        <stop stop-opacity="1" stop-color="rgb(232,238,247)" offset="0%"/>
        <stop stop-opacity="1" stop-color="rgb(183,201,227)" offset="100%"/>
      </linearGradient>
      <linearGradient x1="-242.6406" gradientUnits="userSpaceOnUse" x2="-35.6406" y1="726.0781" y2="820.0781" id="linearGradient13" spreadMethod="reflect">
        <stop stop-opacity="1" stop-color="rgb(232,238,247)" offset="0%"/>
        <stop stop-opacity="1" stop-color="rgb(183,201,227)" offset="100%"/>
      </linearGradient>
      <linearGradient x1="-242.6406" gradientUnits="userSpaceOnUse" x2="-35.6406" y1="850.0781" y2="944.0781" id="linearGradient14" spreadMethod="reflect">
        <stop stop-opacity="1" stop-color="rgb(232,238,247)" offset="0%"/>
        <stop stop-opacity="1" stop-color="rgb(183,201,227)" offset="100%"/>
      </linearGradient>
      <linearGradient x1="-242.6406" gradientUnits="userSpaceOnUse" x2="-35.6406" y1="974.0781" y2="1068.0781" id="linearGradient15" spreadMethod="reflect">
        <stop stop-opacity="1" stop-color="rgb(232,238,247)" offset="0%"/>
        <stop stop-opacity="1" stop-color="rgb(183,201,227)" offset="100%"/>
      </linearGradient>
      <linearGradient x1="-242.6406" gradientUnits="userSpaceOnUse" x2="-35.6406" y1="1098.0781" y2="1192.0781" id="linearGradient16" spreadMethod="reflect">
        <stop stop-opacity="1" stop-color="rgb(232,238,247)" offset="0%"/>
        <stop stop-opacity="1" stop-color="rgb(183,201,227)" offset="100%"/>
      </linearGradient>
      <clipPath clipPathUnits="userSpaceOnUse" id="clipPath1">
        <path d="M0 0 L732 0 L732 1460 L0 1460 L0 0 Z"/>
      </clipPath>
      <clipPath clipPathUnits="userSpaceOnUse" id="clipPath2">
        <path d="M-505 -252 L227 -252 L227 1208 L-505 1208 L-505 -252 Z"/>
      </clipPath>
    </defs>
    <g fill="white" text-rendering="geometricPrecision" shape-rendering="geometricPrecision" transform="translate(505,252)" stroke="white">
      <rect x="-505" width="732" height="1460" y="-252" clip-path="url(#clipPath2)" stroke="none"/>
    </g>
    <g fill="url(#linearGradient1)" text-rendering="geometricPrecision" shape-rendering="geometricPrecision" transform="matrix(1,0,0,1,505,252)" stroke="url(#linearGradient1)">
      <ellipse rx="103.5" ry="20" clip-path="url(#clipPath2)" cx="-139.1406" cy="-216.3125" stroke="none"/>
    </g>
    <g text-rendering="geometricPrecision" stroke-miterlimit="1.45" shape-rendering="geometricPrecision" transform="matrix(1,0,0,1,505,252)" stroke-linecap="butt">
      <ellipse rx="103.5" fill="none" ry="20" clip-path="url(#clipPath2)" cx="-139.1406" cy="-216.3125"/>
      <text x="-178.4951" xml:space="preserve" y="-211.5986" clip-path="url(#clipPath2)" font-family="sans-serif" stroke="none">ComputeSwap</text>
    </g>
    <g fill="url(#linearGradient2)" text-rendering="geometricPrecision" shape-rendering="geometricPrecision" transform="matrix(1,0,0,1,505,252)" stroke="url(#linearGradient2)">
      <path d="M-139.1406 81.6875 L-54.1406 118.1875 L-139.1406 154.6875 L-224.1406 118.1875 Z" stroke="none" clip-path="url(#clipPath2)"/>
    </g>
    <g text-rendering="geometricPrecision" stroke-miterlimit="1.45" shape-rendering="geometricPrecision" transform="matrix(1,0,0,1,505,252)" stroke-linecap="butt">
      <path fill="none" d="M-139.1406 81.6875 L-54.1406 118.1875 L-139.1406 154.6875 L-224.1406 118.1875 Z" clip-path="url(#clipPath2)"/>
      <text x="-176.8164" xml:space="preserve" y="115.5508" clip-path="url(#clipPath2)" font-family="sans-serif" stroke="none">Terra&lt;-&gt;Terra</text>
      <text x="-157.4863" xml:space="preserve" y="130.252" clip-path="url(#clipPath2)" font-family="sans-serif" stroke="none">Swap?</text>
    </g>
    <g fill="url(#linearGradient3)" text-rendering="geometricPrecision" shape-rendering="geometricPrecision" transform="matrix(1,0,0,1,505,252)" stroke="url(#linearGradient3)">
      <path d="M-489.6406 71.1875 L-282.6406 71.1875 L-282.6406 165.1875 L-489.6406 165.1875 Z" stroke="none" clip-path="url(#clipPath2)"/>
    </g>
    <g text-rendering="geometricPrecision" stroke-miterlimit="1.45" shape-rendering="geometricPrecision" transform="matrix(1,0,0,1,505,252)" stroke-linecap="butt">
      <path fill="none" d="M-489.6406 71.1875 L-282.6406 71.1875 L-282.6406 165.1875 L-489.6406 165.1875 Z" clip-path="url(#clipPath2)"/>
      <text x="-463.1709" xml:space="preserve" y="115.5508" clip-path="url(#clipPath2)" font-family="sans-serif" stroke="none">Get Tobin Tax for askDenom</text>
      <text x="-465.8398" xml:space="preserve" y="130.252" clip-path="url(#clipPath2)" font-family="sans-serif" stroke="none">Get Tobin Tax for offerDenom</text>
    </g>
    <g fill="url(#linearGradient4)" text-rendering="geometricPrecision" shape-rendering="geometricPrecision" transform="matrix(1,0,0,1,505,252)" stroke="url(#linearGradient4)">
      <path d="M-489.6406 195.1875 L-282.6406 195.1875 L-282.6406 289.1875 L-489.6406 289.1875 Z" stroke="none" clip-path="url(#clipPath2)"/>
    </g>
    <g text-rendering="geometricPrecision" stroke-miterlimit="1.45" shape-rendering="geometricPrecision" transform="matrix(1,0,0,1,505,252)" stroke-linecap="butt">
      <path fill="none" d="M-489.6406 195.1875 L-282.6406 195.1875 L-282.6406 289.1875 L-489.6406 289.1875 Z" clip-path="url(#clipPath2)"/>
      <text x="-462.5176" xml:space="preserve" y="239.5508" clip-path="url(#clipPath2)" font-family="sans-serif" stroke="none">Apply Highest Tax and apply</text>
      <text x="-434.0059" xml:space="preserve" y="254.252" clip-path="url(#clipPath2)" font-family="sans-serif" stroke="none">spread = tobin tax</text>
    </g>
    <g fill="url(#linearGradient5)" text-rendering="geometricPrecision" shape-rendering="geometricPrecision" transform="matrix(1,0,0,1,505,252)" stroke="url(#linearGradient5)">
      <rect x="-242.6406" width="207" height="94" y="-166.3125" clip-path="url(#clipPath2)" stroke="none"/>
    </g>
    <g text-rendering="geometricPrecision" stroke-miterlimit="1.45" shape-rendering="geometricPrecision" transform="matrix(1,0,0,1,505,252)" stroke-linecap="butt">
      <rect fill="none" x="-242.6406" width="207" height="94" y="-166.3125" clip-path="url(#clipPath2)"/>
      <path fill="none" d="M-232.6406 -166.3125 L-232.6406 -72.3125 M-45.6406 -166.3125 L-45.6406 -72.3125 M-232.6406 -166.3125 Z" clip-path="url(#clipPath2)"/>
      <text x="-202.5039" xml:space="preserve" y="-129.2998" clip-path="url(#clipPath2)" font-family="sans-serif" stroke="none">ComputeInternalSwap()</text>
      <text x="-204.168" xml:space="preserve" y="-114.5986" clip-path="url(#clipPath2)" font-family="sans-serif" stroke="none">Swap offerCoins to SDR</text>
      <text x="-214.5039" xml:space="preserve" y="-99.8975" clip-path="url(#clipPath2)" font-family="sans-serif" stroke="none">(according to Oracle pricing)</text>
    </g>
    <g fill="url(#linearGradient6)" text-rendering="geometricPrecision" shape-rendering="geometricPrecision" transform="matrix(1,0,0,1,505,252)" stroke="url(#linearGradient6)">
      <path d="M4.3594 71.1875 L211.3594 71.1875 L211.3594 165.1875 L4.3594 165.1875 Z" stroke="none" clip-path="url(#clipPath2)"/>
    </g>
    <g text-rendering="geometricPrecision" stroke-miterlimit="1.45" shape-rendering="geometricPrecision" transform="matrix(1,0,0,1,505,252)" stroke-linecap="butt">
      <path fill="none" d="M4.3594 71.1875 L211.3594 71.1875 L211.3594 165.1875 L4.3594 165.1875 Z" clip-path="url(#clipPath2)"/>
      <text x="58.8369" xml:space="preserve" y="108.2002" clip-path="url(#clipPath2)" font-family="sans-serif" stroke="none">Construct v2 Pool:</text>
      <text x="31.8076" xml:space="preserve" y="122.9014" clip-path="url(#clipPath2)" font-family="sans-serif" stroke="none">terraPool = basePool + delta</text>
      <text x="17.1504" xml:space="preserve" y="137.6025" clip-path="url(#clipPath2)" font-family="sans-serif" stroke="none">lunaPool = basePool^2 / terraPool</text>
    </g>
    <g fill="url(#linearGradient7)" text-rendering="geometricPrecision" shape-rendering="geometricPrecision" transform="matrix(1,0,0,1,505,252)" stroke="url(#linearGradient7)">
      <path d="M107.8594 205.6875 L192.8594 242.1875 L107.8594 278.6875 L22.8594 242.1875 Z" stroke="none" clip-path="url(#clipPath2)"/>
    </g>
    <g text-rendering="geometricPrecision" stroke-miterlimit="1.45" shape-rendering="geometricPrecision" transform="matrix(1,0,0,1,505,252)" stroke-linecap="butt">
      <path fill="none" d="M107.8594 205.6875 L192.8594 242.1875 L107.8594 278.6875 L22.8594 242.1875 Z" clip-path="url(#clipPath2)"/>
      <text x="74.6748" xml:space="preserve" y="239.5508" clip-path="url(#clipPath2)" font-family="sans-serif" stroke="none">Terra-&gt;Luna</text>
      <text x="89.5137" xml:space="preserve" y="254.252" clip-path="url(#clipPath2)" font-family="sans-serif" stroke="none">Swap?</text>
    </g>
    <g fill="url(#linearGradient8)" text-rendering="geometricPrecision" shape-rendering="geometricPrecision" transform="matrix(1,0,0,1,505,252)" stroke="url(#linearGradient8)">
      <path d="M-242.6406 195.1875 L-35.6406 195.1875 L-35.6406 289.1875 L-242.6406 289.1875 Z" stroke="none" clip-path="url(#clipPath2)"/>
    </g>
    <g text-rendering="geometricPrecision" stroke-miterlimit="1.45" shape-rendering="geometricPrecision" transform="matrix(1,0,0,1,505,252)" stroke-linecap="butt">
      <path fill="none" d="M-242.6406 195.1875 L-35.6406 195.1875 L-35.6406 289.1875 L-242.6406 289.1875 Z" clip-path="url(#clipPath2)"/>
      <text x="-191.6699" xml:space="preserve" y="239.5508" clip-path="url(#clipPath2)" font-family="sans-serif" stroke="none">askPool = terraPool</text>
      <text x="-194.6787" xml:space="preserve" y="254.252" clip-path="url(#clipPath2)" font-family="sans-serif" stroke="none">lofferPool = lunaPool</text>
    </g>
    <g fill="url(#linearGradient9)" text-rendering="geometricPrecision" shape-rendering="geometricPrecision" transform="matrix(1,0,0,1,505,252)" stroke="url(#linearGradient9)">
      <path d="M4.3594 319.1875 L211.3594 319.1875 L211.3594 413.1875 L4.3594 413.1875 Z" stroke="none" clip-path="url(#clipPath2)"/>
    </g>
    <g text-rendering="geometricPrecision" stroke-miterlimit="1.45" shape-rendering="geometricPrecision" transform="matrix(1,0,0,1,505,252)" stroke-linecap="butt">
      <path fill="none" d="M4.3594 319.1875 L211.3594 319.1875 L211.3594 413.1875 L4.3594 413.1875 Z" clip-path="url(#clipPath2)"/>
      <text x="56.3232" xml:space="preserve" y="363.5508" clip-path="url(#clipPath2)" font-family="sans-serif" stroke="none">askPool = lunaPool</text>
      <text x="51.3281" xml:space="preserve" y="378.252" clip-path="url(#clipPath2)" font-family="sans-serif" stroke="none">lofferPool = terraPool</text>
    </g>
    <g fill="url(#linearGradient10)" text-rendering="geometricPrecision" shape-rendering="geometricPrecision" transform="matrix(1,0,0,1,505,252)" stroke="url(#linearGradient10)">
      <path d="M-242.6406 478.0781 L-35.6406 478.0781 L-35.6406 572.0781 L-242.6406 572.0781 Z" stroke="none" clip-path="url(#clipPath2)"/>
    </g>
    <g text-rendering="geometricPrecision" stroke-miterlimit="1.45" shape-rendering="geometricPrecision" transform="matrix(1,0,0,1,505,252)" stroke-linecap="butt">
      <path fill="none" d="M-242.6406 478.0781 L-35.6406 478.0781 L-35.6406 572.0781 L-242.6406 572.0781 Z" clip-path="url(#clipPath2)"/>
      <text x="-211.8496" xml:space="preserve" y="522.4414" clip-path="url(#clipPath2)" font-family="sans-serif" stroke="none">Calculate spread according</text>
      <text x="-198.5078" xml:space="preserve" y="537.1426" clip-path="url(#clipPath2)" font-family="sans-serif" stroke="none">to constructed v2 Pool</text>
    </g>
    <g fill="url(#linearGradient11)" text-rendering="geometricPrecision" shape-rendering="geometricPrecision" transform="matrix(1,0,0,1,505,252)" stroke="url(#linearGradient11)">
      <rect x="-242.6406" width="207" height="94" y="-42.3125" clip-path="url(#clipPath2)" stroke="none"/>
    </g>
    <g text-rendering="geometricPrecision" stroke-miterlimit="1.45" shape-rendering="geometricPrecision" transform="matrix(1,0,0,1,505,252)" stroke-linecap="butt">
      <rect fill="none" x="-242.6406" width="207" height="94" y="-42.3125" clip-path="url(#clipPath2)"/>
      <path fill="none" d="M-232.6406 -42.3125 L-232.6406 51.6875 M-45.6406 -42.3125 L-45.6406 51.6875 M-232.6406 -42.3125 Z" clip-path="url(#clipPath2)"/>
      <text x="-202.5039" xml:space="preserve" y="-12.6504" clip-path="url(#clipPath2)" font-family="sans-serif" stroke="none">ComputeInternalSwap()</text>
      <text x="-203.834" xml:space="preserve" y="2.0508" clip-path="url(#clipPath2)" font-family="sans-serif" stroke="none">Swap offerCoins in SDR</text>
      <text x="-217.8408" xml:space="preserve" y="16.752" clip-path="url(#clipPath2)" font-family="sans-serif" stroke="none">to askCoin in SDR (according</text>
      <text x="-185.4883" xml:space="preserve" y="31.4531" clip-path="url(#clipPath2)" font-family="sans-serif" stroke="none">to Oracle Pricing)</text>
    </g>
    <g fill="url(#linearGradient12)" text-rendering="geometricPrecision" shape-rendering="geometricPrecision" transform="matrix(1,0,0,1,505,252)" stroke="url(#linearGradient12)">
      <path d="M-139.1406 612.5781 L-54.1406 649.0781 L-139.1406 685.5781 L-224.1406 649.0781 Z" stroke="none" clip-path="url(#clipPath2)"/>
    </g>
    <g text-rendering="geometricPrecision" stroke-miterlimit="1.45" shape-rendering="geometricPrecision" transform="matrix(1,0,0,1,505,252)" stroke-linecap="butt">
      <path fill="none" d="M-139.1406 612.5781 L-54.1406 649.0781 L-139.1406 685.5781 L-224.1406 649.0781 Z" clip-path="url(#clipPath2)"/>
      <text x="-193.3398" xml:space="preserve" y="653.792" clip-path="url(#clipPath2)" font-family="sans-serif" stroke="none">spread &lt; minSpread</text>
    </g>
    <g fill="url(#linearGradient13)" text-rendering="geometricPrecision" shape-rendering="geometricPrecision" transform="matrix(1,0,0,1,505,252)" stroke="url(#linearGradient13)">
      <path d="M-242.6406 726.0781 L-35.6406 726.0781 L-35.6406 820.0781 L-242.6406 820.0781 Z" stroke="none" clip-path="url(#clipPath2)"/>
    </g>
    <g text-rendering="geometricPrecision" stroke-miterlimit="1.45" shape-rendering="geometricPrecision" transform="matrix(1,0,0,1,505,252)" stroke-linecap="butt">
      <path fill="none" d="M-242.6406 726.0781 L-35.6406 726.0781 L-35.6406 820.0781 L-242.6406 820.0781 Z" clip-path="url(#clipPath2)"/>
      <text x="-193.3398" xml:space="preserve" y="777.792" clip-path="url(#clipPath2)" font-family="sans-serif" stroke="none">spread = minSpread</text>
    </g>
    <g fill="url(#linearGradient14)" text-rendering="geometricPrecision" shape-rendering="geometricPrecision" transform="matrix(1,0,0,1,505,252)" stroke="url(#linearGradient14)">
      <path d="M-242.6406 850.0781 L-35.6406 850.0781 L-35.6406 944.0781 L-242.6406 944.0781 Z" stroke="none" clip-path="url(#clipPath2)"/>
    </g>
    <g text-rendering="geometricPrecision" stroke-miterlimit="1.45" shape-rendering="geometricPrecision" transform="matrix(1,0,0,1,505,252)" stroke-linecap="butt">
      <path fill="none" d="M-242.6406 850.0781 L-35.6406 850.0781 L-35.6406 944.0781 L-242.6406 944.0781 Z" clip-path="url(#clipPath2)"/>
      <text x="-200.333" xml:space="preserve" y="879.7402" clip-path="url(#clipPath2)" font-family="sans-serif" stroke="none">For Terra-&gt;Luna swap:</text>
      <text x="-206.1836" xml:space="preserve" y="894.4414" clip-path="url(#clipPath2)" font-family="sans-serif" stroke="none">delta = delta + offerCoins</text>
      <text x="-200.333" xml:space="preserve" y="909.1426" clip-path="url(#clipPath2)" font-family="sans-serif" stroke="none">For Luna-&gt;Terra swap:</text>
      <text x="-202.0088" xml:space="preserve" y="923.8438" clip-path="url(#clipPath2)" font-family="sans-serif" stroke="none">delta = delta - askCoins</text>
    </g>
    <g fill="url(#linearGradient15)" text-rendering="geometricPrecision" shape-rendering="geometricPrecision" transform="matrix(1,0,0,1,505,252)" stroke="url(#linearGradient15)">
      <path d="M-242.6406 974.0781 L-35.6406 974.0781 L-35.6406 1068.0781 L-242.6406 1068.0781 Z" stroke="none" clip-path="url(#clipPath2)"/>
    </g>
    <g text-rendering="geometricPrecision" stroke-miterlimit="1.45" shape-rendering="geometricPrecision" transform="matrix(1,0,0,1,505,252)" stroke-linecap="butt">
      <path fill="none" d="M-242.6406 974.0781 L-35.6406 974.0781 L-35.6406 1068.0781 L-242.6406 1068.0781 Z" clip-path="url(#clipPath2)"/>
      <text x="-180.4961" xml:space="preserve" y="1018.4414" clip-path="url(#clipPath2)" font-family="sans-serif" stroke="none">burn offer coins</text>
      <text x="-177.1533" xml:space="preserve" y="1033.1426" clip-path="url(#clipPath2)" font-family="sans-serif" stroke="none">mint ask coins</text>
    </g>
    <g fill="url(#linearGradient16)" text-rendering="geometricPrecision" shape-rendering="geometricPrecision" transform="matrix(1,0,0,1,505,252)" stroke="url(#linearGradient16)">
      <path d="M-242.6406 1098.0781 L-35.6406 1098.0781 L-35.6406 1192.0781 L-242.6406 1192.0781 Z" stroke="none" clip-path="url(#clipPath2)"/>
    </g>
    <g text-rendering="geometricPrecision" stroke-miterlimit="1.45" shape-rendering="geometricPrecision" transform="matrix(1,0,0,1,505,252)" stroke-linecap="butt">
      <path fill="none" d="M-242.6406 1098.0781 L-35.6406 1098.0781 L-35.6406 1192.0781 L-242.6406 1192.0781 Z" clip-path="url(#clipPath2)"/>
      <text x="-191.166" xml:space="preserve" y="1142.4414" clip-path="url(#clipPath2)" font-family="sans-serif" stroke="none">charge spread from</text>
      <text x="-201.5078" xml:space="preserve" y="1157.1426" clip-path="url(#clipPath2)" font-family="sans-serif" stroke="none">feeCoins of the swap tx</text>
    </g>
    <g text-rendering="geometricPrecision" stroke-miterlimit="1.45" shape-rendering="geometricPrecision" transform="matrix(1,0,0,1,505,252)" stroke-linecap="butt">
      <path fill="none" d="M-224.1373 118.1875 L-274.6341 118.1875" clip-path="url(#clipPath2)"/>
    </g>
    <g text-rendering="geometricPrecision" stroke-miterlimit="1.45" shape-rendering="geometricPrecision" transform="matrix(1,0,0,1,505,252)" stroke-linecap="butt">
      <path d="M-282.6341 118.1875 L-270.6341 123.1875 L-273.6341 118.1875 L-270.6341 113.1875 Z" stroke="none" clip-path="url(#clipPath2)"/>
      <text x="-265.3965" xml:space="preserve" y="92.9014" clip-path="url(#clipPath2)" font-family="sans-serif" stroke="none">YES</text>
      <path fill="none" d="M-386.1406 165.2021 L-386.1406 187.1618" clip-path="url(#clipPath2)"/>
      <path d="M-386.1406 195.1618 L-381.1406 183.1618 L-386.1406 186.1618 L-391.1406 183.1618 Z" clip-path="url(#clipPath2)" stroke="none"/>
      <path fill="none" d="M-139.1406 -196.2778 L-139.1406 -174.326" clip-path="url(#clipPath2)"/>
      <path d="M-139.1406 -166.326 L-134.1406 -178.326 L-139.1406 -175.326 L-144.1406 -178.326 Z" clip-path="url(#clipPath2)" stroke="none"/>
      <path fill="none" d="M-54.1439 118.1875 L-3.6471 118.1875" clip-path="url(#clipPath2)"/>
      <path d="M4.3529 118.1875 L-7.6471 113.1875 L-4.6471 118.1875 L-7.6471 123.1875 Z" clip-path="url(#clipPath2)" stroke="none"/>
      <text x="-33.8906" xml:space="preserve" y="92.9014" clip-path="url(#clipPath2)" font-family="sans-serif" stroke="none">NO</text>
      <path fill="none" d="M107.8594 165.2021 L107.8594 197.6871" clip-path="url(#clipPath2)"/>
      <path d="M107.8594 205.6871 L112.8594 193.6871 L107.8594 196.6871 L102.8594 193.6871 Z" clip-path="url(#clipPath2)" stroke="none"/>
      <path fill="none" d="M22.8627 242.1875 L-27.6341 242.1875" clip-path="url(#clipPath2)"/>
      <path d="M-35.6341 242.1875 L-23.6341 247.1875 L-26.6341 242.1875 L-23.6341 237.1875 Z" clip-path="url(#clipPath2)" stroke="none"/>
      <text x="-18.3965" xml:space="preserve" y="216.9014" clip-path="url(#clipPath2)" font-family="sans-serif" stroke="none">YES</text>
      <path fill="none" d="M107.8594 278.667 L107.8594 311.2221" clip-path="url(#clipPath2)"/>
      <path d="M107.8594 319.2221 L112.8594 307.2221 L107.8594 310.2221 L102.8594 307.2221 Z" clip-path="url(#clipPath2)" stroke="none"/>
      <text x="128.8594" xml:space="preserve" y="303.6514" clip-path="url(#clipPath2)" font-family="sans-serif" stroke="none">NO</text>
      <path fill="none" d="M107.8594 413.1642 L107.8594 525.0781 L-27.631 525.0781" clip-path="url(#clipPath2)"/>
      <path d="M-35.631 525.0781 L-23.631 530.0781 L-26.631 525.0781 L-23.631 520.0781 Z" clip-path="url(#clipPath2)" stroke="none"/>
      <path fill="none" d="M-139.1406 289.1863 L-139.1406 470.0553" clip-path="url(#clipPath2)"/>
      <path d="M-139.1406 478.0553 L-134.1406 466.0553 L-139.1406 469.0553 L-144.1406 466.0553 Z" clip-path="url(#clipPath2)" stroke="none"/>
      <path fill="none" d="M-139.1406 -72.2979 L-139.1406 -50.3382" clip-path="url(#clipPath2)"/>
      <path d="M-139.1406 -42.3382 L-134.1406 -54.3382 L-139.1406 -51.3382 L-144.1406 -54.3382 Z" clip-path="url(#clipPath2)" stroke="none"/>
      <path fill="none" d="M-139.1406 51.7113 L-139.1406 73.671" clip-path="url(#clipPath2)"/>
      <path d="M-139.1406 81.671 L-134.1406 69.671 L-139.1406 72.671 L-144.1406 69.671 Z" clip-path="url(#clipPath2)" stroke="none"/>
      <path fill="none" d="M-139.1406 572.0928 L-139.1406 604.5778" clip-path="url(#clipPath2)"/>
      <path d="M-139.1406 612.5778 L-134.1406 600.5778 L-139.1406 603.5778 L-144.1406 600.5778 Z" clip-path="url(#clipPath2)" stroke="none"/>
      <path fill="none" d="M-139.1406 685.5576 L-139.1406 718.1128" clip-path="url(#clipPath2)"/>
      <path d="M-139.1406 726.1128 L-134.1406 714.1128 L-139.1406 717.1128 L-144.1406 714.1128 Z" clip-path="url(#clipPath2)" stroke="none"/>
      <text x="-181.1465" xml:space="preserve" y="710.542" clip-path="url(#clipPath2)" font-family="sans-serif" stroke="none">YES</text>
      <path fill="none" d="M-139.1406 820.0928 L-139.1406 842.0524" clip-path="url(#clipPath2)"/>
      <path d="M-139.1406 850.0524 L-134.1406 838.0524 L-139.1406 841.0524 L-144.1406 838.0524 Z" clip-path="url(#clipPath2)" stroke="none"/>
      <path fill="none" d="M-54.1439 649.0781 L107.8594 649.0781 L107.8594 897.0781 L101.5117 897.0781 L-27.6472 897.0781" clip-path="url(#clipPath2)"/>
      <path d="M-35.6472 897.0781 L-23.6472 902.0781 L-26.6472 897.0781 L-23.6472 892.0781 Z" clip-path="url(#clipPath2)" stroke="none"/>
      <text x="25.8594" xml:space="preserve" y="649.2325" clip-path="url(#clipPath2)" font-family="sans-serif" stroke="none">NO</text>
      <path fill="none" d="M-139.1406 944.0928 L-139.1406 966.0524" clip-path="url(#clipPath2)"/>
      <path d="M-139.1406 974.0524 L-134.1406 962.0524 L-139.1406 965.0524 L-144.1406 962.0524 Z" clip-path="url(#clipPath2)" stroke="none"/>
      <path fill="none" d="M-139.1406 1068.0928 L-139.1406 1090.0524" clip-path="url(#clipPath2)"/>
      <path d="M-139.1406 1098.0524 L-134.1406 1086.0524 L-139.1406 1089.0524 L-144.1406 1086.0524 Z" clip-path="url(#clipPath2)" stroke="none"/>
    </g>
  </g>
</svg>
